HIERARCHY
ROOT Hips
{
OFFSET -0.1795 -22.3333 2.8219000000000003
	CHANNELS 6 Xposition Yposition Zposition Zrotation Yrotation Xrotation 
	JOINT LeftUpLeg
	{
OFFSET 6.952 -9.140600000000001 -0.6815
		CHANNELS 3 Zrotation Yrotation Xrotation
		JOINT LeftLeg
		{
OFFSET 3.4277 -37.5199 -0.4496
			CHANNELS 3 Zrotation Yrotation Xrotation
			JOINT LeftFoot
			{
OFFSET -1.3596000000000001 -39.7961 -4.3693
				CHANNELS 3 Zrotation Yrotation Xrotation
				JOINT LeftToe
				{
OFFSET 2.6358 -5.5791 11.9288
					CHANNELS 3 Zrotation Yrotation Xrotation
					End Site
					{
OFFSET 0.0 0.0 0.0
					}
				}
			}
		}
	}
	JOINT RightUpLeg
	{
OFFSET -6.7669999999999995 -9.052200000000001 -0.432
		CHANNELS 3 Zrotation Yrotation Xrotation
		JOINT RightLeg
		{
OFFSET -3.8289999999999997 -38.2569 -0.885
			CHANNELS 3 Zrotation Yrotation Xrotation
			JOINT RightFoot
			{
OFFSET 1.5774 -39.8415 -4.2312
				CHANNELS 3 Zrotation Yrotation Xrotation
				JOINT RightToe
				{
OFFSET -2.5372 -4.8144 12.3348
					CHANNELS 3 Zrotation Yrotation Xrotation
					End Site
					{
OFFSET 0.0 0.0 0.0
					}
				}
			}
		}
	}
	JOINT Spine
	{
OFFSET -0.2533 10.8963 -2.6696
		CHANNELS 3 Zrotation Yrotation Xrotation
		JOINT Spine1
		{
OFFSET 0.5487 13.517999999999999 0.1092
			CHANNELS 3 Zrotation Yrotation Xrotation
			JOINT Spine2
			{
OFFSET 0.1457 5.292199999999999 2.5425
				CHANNELS 3 Zrotation Yrotation Xrotation
				JOINT Neck
				{
OFFSET -0.2778 21.387 -4.2857
					CHANNELS 3 Zrotation Yrotation Xrotation
					JOINT Head
					{
OFFSET 0.5152 6.497 5.1349
						CHANNELS 3 Zrotation Yrotation Xrotation
						End Site
						{
OFFSET 0.0 0.0 0.0
						}
					}
				}
				JOINT LeftShoulder
				{
OFFSET 7.8845 12.1749 -3.4090000000000003
					CHANNELS 3 Zrotation Yrotation Xrotation
					JOINT LeftArm
					{
OFFSET 9.0977 3.0469 -0.8867999999999999
						CHANNELS 3 Zrotation Yrotation Xrotation
						JOINT LeftForeArm
						{
OFFSET 25.9612 -1.2772000000000001 -2.7456
							CHANNELS 3 Zrotation Yrotation Xrotation
							JOINT LeftHand
							{
OFFSET 24.9234 0.8986 -0.1171
								CHANNELS 3 Zrotation Yrotation Xrotation
								End Site
								{
OFFSET 0.0 0.0 0.0
								}
							}
						}
					}
				}
				JOINT RightShoulder
				{
OFFSET -8.1759 11.8833 -3.8614999999999995
					CHANNELS 3 Zrotation Yrotation Xrotation
					JOINT RightArm
					{
OFFSET -9.6012 3.2550999999999997 -0.9143
						CHANNELS 3 Zrotation Yrotation Xrotation
						JOINT RightForeArm
						{
OFFSET -25.374200000000002 -1.3329 -2.1401
							CHANNELS 3 Zrotation Yrotation Xrotation
							JOINT RightHand
							{
OFFSET -25.5298 0.7772 -0.5559
								CHANNELS 3 Zrotation Yrotation Xrotation
								End Site
								{
OFFSET 0.0 0.0 0.0
								}
							}
						}
					}
				}
			}
		}
	}
}
MOTION
Frames: 16
Frame Time: 0.050000
0.0 95.15820000000001 0.0 -2.764878 2.315127 -1.263137 5.996150 -0.124423 -0.885440 -0.101079 -0.215841 6.253131 -0.889888 2.529116 9.441094 0.000000 0.000000 0.000000 -3.735512 0.314744 -3.797800 -0.388567 0.325341 6.948456 0.050856 -4.722421 12.589255 0.000000 0.000000 0.000000 -0.725706 -0.422208 11.395363 -1.251671 0.637514 -1.371960 0.197746 1.461082 -0.051061 3.767463 -2.312116 -4.569601 0.000000 0.000000 0.000000 -19.008461 5.699620 -5.558908 -42.908499 12.170750 -8.602436 -11.815950 -21.609011 2.885761 0.000000 0.000000 0.000000 21.117559 -4.413405 -3.949049 48.239053 -6.906710 -7.004526 13.430748 24.528924 3.573641 0.000000 0.000000 0.000000
-0.0899 95.3022 -0.0745 -2.814380 2.596584 -0.840746 5.881218 -0.125147 -0.696959 0.503343 -0.261381 5.035701 -1.390577 1.799576 9.709306 0.000000 0.000000 0.000000 -3.726752 0.312538 -3.737475 -0.227137 0.260637 6.026912 0.082663 -4.765279 13.078683 0.000000 0.000000 0.000000 -1.211266 -0.357891 10.970687 -0.952998 0.465779 -0.197679 0.671379 -0.095220 -2.057713 2.359947 -1.162104 -5.857095 0.000000 0.000000 0.000000 -18.612155 7.370437 -6.055632 -44.184039 11.949248 -8.722257 -10.324521 -20.047528 2.457430 0.000000 0.000000 0.000000 19.265624 -3.317253 -3.553733 49.820510 -8.593564 -7.641334 13.843683 25.498042 3.699587 0.000000 0.000000 0.000000
-0.1889 95.214 -0.12310000000000001 -2.560097 2.171193 -0.803657 5.545526 -0.111403 -0.583548 0.626271 -0.288282 5.266275 -1.092093 1.882199 8.763399 0.000000 0.000000 0.000000 -3.513516 0.296820 -3.409372 -0.350475 0.249796 5.170208 -0.685216 -6.176674 12.723003 0.000000 0.000000 0.000000 -1.337580 -0.311041 10.110687 -0.491433 0.277708 -1.306857 0.207751 -0.112467 -0.426018 2.980149 -1.416214 -7.646299 0.000000 0.000000 0.000000 -18.564424 5.092752 -4.821172 -45.386331 11.409296 -8.939808 -10.311902 -20.586714 2.542514 0.000000 0.000000 0.000000 19.905558 -2.925209 -3.389126 50.729932 -7.155528 -7.383136 9.441749 24.911272 2.723612 0.000000 0.000000 0.000000
-0.3386 95.1983 -0.1193 -2.872582 2.526298 -1.385424 5.745941 -0.099086 -0.252636 0.673511 -0.314342 5.645047 -0.526239 2.816050 8.505574 0.000000 0.000000 0.000000 -3.098846 0.285960 -3.262319 -0.491607 0.306521 6.065941 -0.580548 -5.926138 12.730683 0.000000 0.000000 0.000000 -1.624555 -0.307803 10.636997 -0.998138 0.482230 0.065452 1.526210 -1.658299 -1.713537 1.997649 -0.819267 -7.587038 0.000000 0.000000 0.000000 -18.871484 5.304682 -4.645293 -45.855831 9.798133 -8.435312 -9.076755 -19.119855 2.205579 0.000000 0.000000 0.000000 18.657181 -0.906348 -2.598951 50.779877 -6.248474 -6.850624 8.643408 22.684946 2.211011 0.000000 0.000000 0.000000
-0.5559999999999999 95.1292 -0.0642 -2.867765 2.431856 -2.011959 5.854545 -0.072020 0.276292 0.784453 -0.344669 5.925718 -0.556071 2.762656 8.513884 0.000000 0.000000 0.000000 -3.061847 0.255735 -2.900038 -0.440703 0.319321 6.583347 -0.446329 -5.627583 12.514976 0.000000 0.000000 0.000000 -1.765149 -0.322156 11.436280 -0.706873 0.345244 0.004449 1.164503 -1.376142 -1.852600 2.045027 -0.913800 -6.759292 0.000000 0.000000 0.000000 -19.570313 4.128212 -4.214557 -45.244380 8.291680 -7.760785 -9.198648 -18.362378 2.120868 0.000000 0.000000 0.000000 18.954358 -0.590415 -2.398776 50.338018 -5.651703 -6.541191 8.937678 21.332075 2.126980 0.000000 0.000000 0.000000
-0.8552000000000001 94.9923 0.0446 -2.844319 2.117791 -2.449839 6.313631 -0.069959 0.266662 0.729870 -0.376962 6.847810 -1.125689 1.781585 8.639374 0.000000 0.000000 0.000000 -3.025336 0.267888 -3.077400 -0.528560 0.378421 7.612874 -0.043339 -4.818238 12.214242 0.000000 0.000000 0.000000 -2.128747 -0.303846 12.101464 -0.628489 0.322443 -0.476462 1.556583 -1.638161 -1.458654 2.493614 -1.296678 -6.355373 0.000000 0.000000 0.000000 -19.797933 3.839349 -3.963119 -45.011981 7.655024 -7.558704 -9.051623 -18.060220 2.081160 0.000000 0.000000 0.000000 18.387133 0.068127 -2.091635 50.303627 -5.168370 -6.366055 9.217753 20.421481 2.054876 0.000000 0.000000 0.000000
-1.2446000000000002 94.90610000000001 0.1448 -2.746757 2.001559 -2.606477 6.301225 -0.078184 -0.103924 0.784783 -0.437018 7.947440 -0.687574 2.482604 8.489139 0.000000 0.000000 0.000000 -2.771029 0.313628 -3.633250 -0.475620 0.437533 9.305985 -0.425563 -5.188790 10.945289 0.000000 0.000000 0.000000 -2.275852 -0.284472 11.973350 -0.769830 0.365732 0.423215 1.582410 -1.696809 -1.928038 2.658614 -1.392182 -6.523783 0.000000 0.000000 0.000000 -18.875367 3.647685 -3.711861 -45.806800 7.166199 -7.497668 -9.674169 -18.633670 2.252320 0.000000 0.000000 0.000000 17.785791 0.568499 -1.807845 50.419440 -4.957116 -6.249316 10.927458 19.914940 2.254268 0.000000 0.000000 0.000000
-1.7357 94.7223 0.20170000000000002 -2.411499 1.887653 -2.187148 6.066893 -0.140464 -1.790280 0.471056 -0.510675 10.864462 0.421658 3.811526 6.846942 0.000000 0.000000 0.000000 -2.622346 0.479515 -5.714800 -0.297428 0.521858 12.419591 -1.258706 -6.470055 9.620019 0.000000 0.000000 0.000000 -2.117569 -0.307684 12.423615 -1.134989 0.565076 -0.538634 1.756194 -2.055661 -0.480978 2.262451 -0.978850 -8.503137 0.000000 0.000000 0.000000 -18.998214 3.679379 -3.598941 -45.717523 7.155479 -7.623146 -10.718569 -19.475409 2.566750 0.000000 0.000000 0.000000 17.216379 1.088910 -1.527391 50.052112 -4.938599 -6.309288 13.726595 21.499862 2.926381 0.000000 0.000000 0.000000
-2.31 94.30460000000001 0.0949 -2.301530 1.313307 -1.973289 6.041114 -0.221704 -4.070560 0.188706 -0.622362 15.067968 1.819822 5.739732 5.164644 0.000000 0.000000 0.000000 -2.069019 0.716018 -8.336696 -0.388619 0.733146 16.926083 -1.840471 -7.071181 7.306515 0.000000 0.000000 0.000000 -2.049568 -0.362265 14.479107 -0.762691 0.410698 -1.627649 1.351926 -1.237861 0.490511 2.293517 -0.778698 -10.608300 0.000000 0.000000 0.000000 -18.144863 3.536778 -3.518610 -46.423028 7.192316 -7.818193 -12.170293 -20.501415 2.954683 0.000000 0.000000 0.000000 16.720151 1.689399 -0.995178 49.620370 -4.955299 -6.368234 15.867619 22.320130 3.480245 0.000000 0.000000 0.000000
-2.9664 93.2474 -0.254 -2.293224 1.670972 -1.949181 6.611983 -0.333294 -7.535357 -0.862237 -0.609306 21.289359 3.261058 7.463548 1.933448 0.000000 0.000000 0.000000 -1.791755 1.093919 -12.768434 0.077276 0.840248 24.353768 -2.644342 -8.297923 5.595296 0.000000 0.000000 0.000000 -1.437290 -0.569598 17.948685 -1.394818 0.717359 -2.180236 1.778989 -1.258959 0.577958 2.039579 -0.222321 -14.959640 0.000000 0.000000 0.000000 -18.747798 3.487149 -3.582582 -46.946828 7.155172 -7.915620 -13.426076 -22.840172 3.562772 0.000000 0.000000 0.000000 15.872699 2.669521 -0.408406 48.997817 -4.238359 -6.014054 19.242867 24.213662 4.490631 0.000000 0.000000 0.000000
-3.6682 91.2717 -0.8762000000000001 -2.144059 1.950108 -1.394820 7.600229 -0.450465 -13.017434 -2.523306 -0.346086 29.709135 4.509044 8.787483 -2.153848 0.000000 0.000000 0.000000 -2.243446 1.433968 -17.855799 1.545015 0.437742 31.264965 -3.864631 -10.336024 2.757701 0.000000 0.000000 0.000000 -1.089670 -0.795256 21.963271 -0.778961 0.468741 -3.593138 1.344123 -0.612379 0.749442 2.049109 0.060181 -17.309723 0.000000 0.000000 0.000000 -18.505196 2.753490 -3.353648 -47.761799 6.620225 -7.842303 -14.235753 -25.151556 4.074497 0.000000 0.000000 0.000000 14.516060 3.568682 0.321652 49.560996 -3.907537 -6.002752 20.627603 27.714648 5.625916 0.000000 0.000000 0.000000
-4.3787 88.4221 -1.6645 -2.126231 2.623659 -0.601627 8.669171 -0.563991 -20.569723 -3.819564 -0.147310 40.237315 5.449541 10.046823 -5.048623 0.000000 0.000000 0.000000 -3.285168 1.721537 -25.154811 3.915631 -0.755360 41.473308 -4.967226 -12.381115 0.002503 0.000000 0.000000 0.000000 -0.509775 -1.200970 26.966926 -0.514778 0.414708 -5.695075 1.642400 0.332765 1.645590 2.180850 0.547960 -22.391730 0.000000 0.000000 0.000000 -19.065482 -0.040192 -2.208117 -48.232309 3.808619 -6.869575 -15.436376 -28.652878 4.909803 0.000000 0.000000 0.000000 13.804651 5.461784 1.535710 49.200208 -2.109584 -5.361299 21.504962 33.222145 7.304020 0.000000 0.000000 0.000000
-5.0513 84.9827 -2.4729 -1.839445 2.819398 0.935393 9.098491 -0.751744 -29.165355 -4.949065 0.276792 51.263295 6.817897 12.857654 -7.004967 0.000000 0.000000 0.000000 -4.274536 1.898800 -32.997816 5.624642 -2.029247 51.261048 -6.069046 -14.591250 -3.712600 0.000000 0.000000 0.000000 0.094960 -1.651360 31.624228 -0.457838 0.462788 -8.423528 1.470808 1.598606 2.513483 1.927214 1.093197 -25.622884 0.000000 0.000000 0.000000 -20.096526 -3.794713 -0.634816 -47.893100 -0.401378 -5.160116 -15.570025 -32.077291 5.473785 0.000000 0.000000 0.000000 13.756295 7.327763 2.749890 48.374436 2.124255 -3.745629 17.852675 38.610210 7.593495 0.000000 0.000000 0.000000
-5.648899999999999 81.4555 -3.0828 -1.473329 2.869889 2.038596 9.018353 -1.011149 -36.181007 -5.585799 0.674893 60.726766 8.306412 16.254973 -8.798558 0.000000 0.000000 0.000000 -4.185067 2.272817 -40.410404 5.772737 -2.481333 60.180426 -7.717952 -18.838199 -4.268384 0.000000 0.000000 0.000000 0.705256 -2.099528 35.294619 -0.857622 0.649074 -10.043359 1.593473 2.519729 2.904243 1.257512 1.842682 -30.223720 0.000000 0.000000 0.000000 -22.429695 -10.262341 2.576268 -45.848321 -6.701763 -2.502502 -10.665884 -36.537590 4.614745 0.000000 0.000000 0.000000 14.229056 11.686462 5.161724 45.542062 9.417610 -1.001889 11.230308 42.707569 6.103822 0.000000 0.000000 0.000000
-6.1855 78.1905 -3.1959 -0.643421 2.321541 1.426838 8.165742 -1.301135 -39.180184 -5.845774 1.111258 67.099710 10.274528 21.042477 -10.631941 0.000000 0.000000 0.000000 -3.835722 2.690474 -44.227201 5.521946 -2.354115 68.234292 -8.909431 -22.099763 -7.986737 0.000000 0.000000 0.000000 0.590750 -2.182149 38.272641 -1.312162 0.814688 -10.467796 1.896743 2.697333 1.441549 -0.675759 2.669289 -30.461385 0.000000 0.000000 0.000000 -25.153590 -15.288194 5.579781 -40.844765 -14.072200 0.293390 -5.595900 -42.770630 3.511323 0.000000 0.000000 0.000000 15.848141 17.471529 8.228542 37.706844 18.220762 1.668756 1.038222 46.117210 2.361817 0.000000 0.000000 0.000000
-6.6469000000000005 76.1945 -2.6571000000000002 -0.390843 2.080837 -0.184557 7.544007 -1.440017 -38.781880 -4.977667 0.426287 70.113188 11.201231 23.394142 -12.110961 0.000000 0.000000 0.000000 -3.150063 3.073588 -45.360731 5.246676 -2.162596 73.482962 -9.607132 -23.966259 -7.738418 0.000000 0.000000 0.000000 0.238343 -2.010258 38.267585 -0.729583 0.543262 -7.924211 0.929877 2.646752 -0.646814 0.522002 2.126026 -29.554863 0.000000 0.000000 0.000000 -24.037819 -20.791216 8.780014 -36.272465 -21.648194 2.539603 9.229593 -49.960750 -2.806944 0.000000 0.000000 0.000000 16.827986 23.229380 11.435637 27.544007 26.385059 2.668294 -12.597510 46.429018 -3.341590 0.000000 0.000000 0.000000
